<?xml version="1.0" encoding="UTF-8"?>
<svg id="Layer_2" data-name="Layer 2" xmlns="http://www.w3.org/2000/svg" viewBox="0 0 400 400">
  <defs>
    <style>
      .cls-1 {
        fill: none;
      }

      .cls-2 {
        fill: #aff8e6;
      }
    </style>
  </defs>
  <g id="Illustrasjon">
    <g>
      <g>
        <rect class="cls-1" x="25" y="25" width="350" height="350"/>
        <rect class="cls-1" x="12.5" y="12.5" width="375" height="375"/>
        <rect class="cls-1" width="400" height="400"/>
      </g>
      <path class="cls-2" d="M377.29,215.5l-9.03-.73c-1.84-.16-45.27-3.35-71.1,22.55-11.51,11.54-17.21,26.55-20.01,39.82-5.88-7.94-12.93-14.93-20.94-20.73,13.36-33.82,35.29-52.47,58.43-72.12,24.49-20.79,49.82-42.29,68.69-82.3l-19.33-9.12c-15.19,32.19-35.73,51.58-56.25,69.2-8.15-5.93-15.42-12.33-21.85-18.93,63.81-46.62,64.64-114.58,64.64-117.6l-21.38-.03c-.02,2.59-1.09,61.32-57.32,101.42-23.49-30.46-31.49-59.81-31.6-60.23l-20.69,5.38c.69,2.68,16.69,62.16,71.52,104.24-20.39,17.7-40.31,37.52-53.57,69.42-11.43-4.84-23.99-7.52-37.16-7.52s-25.73,2.68-37.16,7.52c-13.27-31.9-33.18-51.73-53.57-69.42,54.83-42.08,70.82-101.56,71.52-104.24l-20.69-5.38c-.11.43-7.99,29.75-31.55,60.25-56.28-40.1-57.35-98.86-57.36-101.45l-10.69.03h-10.69c0,3.02.82,71,64.66,117.62-6.44,6.58-13.71,12.98-21.87,18.91-20.52-17.62-41.06-37.01-56.25-69.2l-19.33,9.12c18.88,40.01,44.2,61.51,68.69,82.3,23.14,19.65,45.07,38.3,58.43,72.12-8.01,5.79-15.06,12.79-20.94,20.73-2.79-13.27-8.5-28.28-20.01-39.82-25.83-25.9-69.26-22.7-71.1-22.55l-9.03.73-.76,9.03c-.15,1.84-3.47,45.27,22.36,71.16,18.62,18.67,46.35,22.21,61.09,22.68-.83,5.05-1.37,10.2-1.37,15.48v40.43h21.38v-40.43c0-40.94,33.31-74.25,74.24-74.25s74.24,33.31,74.24,74.25v40.43h21.38v-40.43c0-5.28-.54-10.43-1.37-15.48,14.74-.47,42.47-4,61.09-22.68,25.83-25.89,22.51-69.33,22.36-71.16l-.76-9.03ZM60.13,280.59c-12.59-12.63-15.59-32.58-16.19-44.46,11.9.66,31.94,3.73,44.44,16.27,12.6,12.64,15.59,32.62,16.19,44.49-11.88-.63-31.85-3.67-44.45-16.3ZM340.55,280.59c-12.6,12.63-32.57,15.67-44.44,16.3.6-11.87,3.59-31.85,16.19-44.49,12.59-12.62,32.53-15.67,44.42-16.31-.63,11.91-3.65,31.95-16.16,44.49Z"/>
    </g>
  </g>
</svg>