<?xml version="1.0" encoding="UTF-8"?>
<svg id="Layer_2" data-name="Layer 2" xmlns="http://www.w3.org/2000/svg" viewBox="0 0 400 400">
  <defs>
    <style>
      .cls-1 {
        fill: none;
      }

      .cls-2 {
        fill: #aff8e6;
      }
    </style>
  </defs>
  <g id="Illustrasjon">
    <g>
      <g>
        <rect class="cls-1" x="25" y="25" width="350" height="350"/>
        <rect class="cls-1" x="12.5" y="12.5" width="375" height="375"/>
        <rect class="cls-1" width="400" height="400"/>
      </g>
      <path class="cls-2" d="M369.41,213.02l-83.04,22.25-.02-.04-19.49-34.02,19.49-34.07h0s83.05,22.24,83.05,22.24l5.59-20.86-65.93-17.67,54.21-31.3-10.8-18.7-54.45,31.44,17.77-66.31-20.86-5.59-22.21,82.89-39.34-.11-19.65-33.85h0s60.74-60.74,60.74-60.74l-15.27-15.27-48.55,48.55V18.98h-21.6v62.59l-48.26-48.26-15.27,15.27,60.6,60.6-19.8,33.99-39.06.11-22.21-82.89-20.86,5.59,17.77,66.31-54.45-31.44-10.8,18.7,54.21,31.3-65.93,17.67,5.59,20.86,82.78-22.18,19.49,34.01-19.49,33.96v.02s-82.77-22.18-82.77-22.18l-5.59,20.86,66.31,17.77-54.45,31.44,10.8,18.7,54.21-31.3-17.67,65.93,20.86,5.59,22.22-82.91h.02l39.04.11,19.81,34.01-60.61,60.61,15.27,15.27,48.26-48.26v62.59h21.6v-62.87l48.55,48.55,15.27-15.27-60.75-60.75v-.02s19.66-33.85,19.66-33.85l39.31-.11h.03l22.22,82.91,20.86-5.59-17.67-65.93,54.21,31.3,10.8-18.7-54.45-31.44,66.31-17.77-5.59-20.86ZM252.17,218.98v.05l10.64,18.52-21.65.05-20.25.05-10.26,17.66-10.8,18.57-10.8-18.57-10.26-17.66-19.92-.05h-.05l-21.92-.05,10.47-18.3,10.37-18.03-10.1-17.6-10.74-18.79,21.33-.06h.05l20.52-.05,10.26-17.66,10.8-18.57,10.8,18.57,10.26,17.66,20.84.05,21.06.06-10.91,19.06-9.93,17.33,10.2,17.76Z"/>
    </g>
  </g>
</svg>