<?xml version="1.0" encoding="UTF-8"?>
<svg id="Layer_2" data-name="Layer 2" xmlns="http://www.w3.org/2000/svg" viewBox="0 0 400 400">
  <defs>
    <style>
      .cls-1 {
        fill: none;
      }

      .cls-2 {
        fill: #aff8e6;
      }
    </style>
  </defs>
  <g id="Illustrasjon">
    <g>
      <g>
        <rect class="cls-1" x="25" y="25" width="350" height="350"/>
        <rect class="cls-1" x="12.5" y="12.5" width="375" height="375"/>
        <rect class="cls-1" width="400" height="400"/>
      </g>
      <path class="cls-2" d="M200.5,25C104.27,25,25.97,103.31,25.97,199.53s78.31,174.53,174.53,174.53,174.53-78.3,174.53-174.53S296.73,25,200.5,25ZM84.8,98.55l90.54,90.54H47.23c2.24-34.59,16.05-66,37.56-90.53,0,0,0,0,.01-.01ZM190.08,174.36l-90.54-90.54c24.54-21.51,55.95-35.32,90.54-37.56v128.1ZM190.08,352.81c-34.59-2.24-66.05-16.04-90.58-37.55l90.58-90.58v128.14ZM316.2,98.55s0,.01.01.02c21.51,24.53,35.32,55.94,37.56,90.53h-128.12l90.55-90.55ZM301.46,83.82l-90.55,90.55V46.26s0,0,0,0c34.54,2.24,65.95,16.05,90.54,37.56ZM47.22,209.94h128.12l-90.56,90.56c-21.52-24.59-35.32-56-37.56-90.54,0,0,0-.01,0-.02ZM210.92,352.81v-128.14l90.54,90.54c-24.59,21.56-56,35.36-90.53,37.6,0,0,0,0,0,0ZM316.22,300.5l-90.56-90.57h128.13s0,.01,0,.02c-2.24,34.54-16.05,65.96-37.56,90.55Z"/>
    </g>
  </g>
</svg>