<?xml version="1.0" encoding="UTF-8"?>
<svg id="Layer_2" data-name="Layer 2" xmlns="http://www.w3.org/2000/svg" viewBox="0 0 400 400">
  <defs>
    <style>
      .cls-1 {
        fill: none;
      }

      .cls-2 {
        fill: #aff8e6;
      }
    </style>
  </defs>
  <g id="Illustrasjon">
    <g>
      <g>
        <rect class="cls-1" x="25" y="25" width="350" height="350"/>
        <rect class="cls-1" x="12.5" y="12.5" width="375" height="375"/>
        <rect class="cls-1" width="400" height="400"/>
      </g>
      <path class="cls-2" d="M200,376.2c-90.76,0-164.6-73.84-164.6-164.6,0-102.9,83.71-186.61,186.61-186.61v21.05c-91.29,0-165.56,74.27-165.56,165.56,0,79.15,64.4,143.55,143.55,143.55s143.55-64.39,143.55-143.55c0-67.02-54.52-121.54-121.54-121.54s-121.54,54.52-121.54,121.54c0,54.88,44.65,99.53,99.53,99.53s99.53-44.65,99.53-99.53c0-42.74-34.78-77.52-77.52-77.52s-77.52,34.78-77.52,77.52c0,30.61,24.9,55.51,55.51,55.51s55.51-24.9,55.51-55.51c0-18.47-15.03-33.5-33.5-33.5s-33.5,15.03-33.5,33.5c0,6.33,5.15,11.49,11.49,11.49s11.48-5.15,11.48-11.49h21.05c0,17.94-14.59,32.53-32.53,32.53s-32.54-14.6-32.54-32.53c0-30.08,24.47-54.54,54.54-54.54s54.55,24.47,54.55,54.54c0,42.21-34.34,76.55-76.55,76.55s-76.55-34.34-76.55-76.55c0-54.35,44.21-98.56,98.56-98.56s98.57,44.21,98.57,98.56c0,66.49-54.09,120.58-120.57,120.58s-120.58-54.09-120.58-120.58c0-78.62,63.97-142.59,142.59-142.59s142.59,63.96,142.59,142.59c0,90.76-73.84,164.6-164.59,164.6Z"/>
    </g>
  </g>
</svg>