<?xml version="1.0" encoding="UTF-8"?>
<svg id="Layer_2" data-name="Layer 2" xmlns="http://www.w3.org/2000/svg" viewBox="0 0 400 400">
  <defs>
    <style>
      .cls-1 {
        fill: none;
      }

      .cls-2 {
        fill: #aff8e6;
      }
    </style>
  </defs>
  <g id="Illustrasjon">
    <g>
      <g>
        <rect class="cls-1" x="25" y="25" width="350" height="350"/>
        <rect class="cls-1" x="12.5" y="12.5" width="375" height="375"/>
        <rect class="cls-1" width="400" height="400"/>
      </g>
      <path class="cls-2" d="M351.44,233.2c-2.62,7.74-13.18,29.82-26.88,29.82v22.15c10.62,0,19.35-4.6,26.3-10.85v2.89c0,38.54-31.35,69.9-69.9,69.9s-69.9-31.36-69.9-69.9v-130.38c21.43-4.98,37.37-24.25,37.37-47.12s-15.94-42.13-37.37-47.11V12.5h-22.15v40.1c-21.43,4.98-37.37,24.19-37.37,47.11s15.94,42.13,37.37,47.12v130.38c0,38.54-31.35,69.9-69.9,69.9s-69.9-31.36-69.9-69.9v-2.89c6.95,6.26,15.68,10.85,26.3,10.85v-22.15c-13.7,0-24.25-22.09-26.87-29.8l-21.58,3.5v40.49c0,50.75,41.29,92.04,92.04,92.04,27.95,0,53-12.54,69.9-32.27v36.77h22.15v-36.77c16.89,19.73,41.95,32.27,69.9,32.27,50.75,0,92.04-41.29,92.04-92.04v-40.49l-21.57-3.53ZM173.7,99.71c0-10.57,6.26-19.65,15.23-23.86,3.38-1.55,7.14-2.44,11.07-2.44s7.7.89,11.07,2.44c8.97,4.21,15.23,13.29,15.23,23.86s-6.26,19.65-15.23,23.86c-3.38,1.55-7.14,2.44-11.07,2.44s-7.7-.89-11.07-2.44c-8.97-4.21-15.23-13.29-15.23-23.86Z"/>
    </g>
  </g>
</svg>