<?xml version="1.0" encoding="UTF-8"?>
<svg id="Layer_2" data-name="Layer 2" xmlns="http://www.w3.org/2000/svg" viewBox="0 0 579.08 579.08">
  <defs>
    <style>
      .cls-1 {
        fill: none;
      }

      .cls-2 {
        fill: #aff8e6;
      }
    </style>
  </defs>
  <g id="Illustrasjon">
    <g>
      <g>
        <rect class="cls-1" x="36.19" y="36.19" width="506.7" height="506.7"/>
        <rect class="cls-1" x="18.1" y="18.1" width="542.89" height="542.89"/>
        <rect class="cls-1" width="579.08" height="579.08"/>
      </g>
      <g>
        <path class="cls-2" d="M458.91,95.87c-25.87,0-39.68-10.51-50.77-18.96-10.07-7.67-17.35-13.21-33.72-13.21s-23.63,5.54-33.69,13.21c-11.09,8.45-24.89,18.96-50.74,18.96s-39.67-10.52-50.76-18.96c-10.07-7.67-17.34-13.21-33.7-13.21s-23.62,5.54-33.68,13.2c-11.09,8.45-24.89,18.97-50.75,18.97s-39.65-10.52-50.74-18.97c-10.05-7.67-17.32-13.2-33.67-13.2v-28.15c25.85,0,39.65,10.52,50.74,18.97,10.05,7.67,17.32,13.2,33.67,13.2s23.63-5.54,33.69-13.21c11.09-8.45,24.89-18.96,50.74-18.96s39.67,10.52,50.76,18.96c10.07,7.67,17.34,13.21,33.7,13.21s23.62-5.54,33.68-13.2c11.09-8.45,24.89-18.97,50.75-18.97s39.68,10.51,50.77,18.96c10.07,7.67,17.35,13.21,33.72,13.21s23.65-5.54,33.72-13.21c11.09-8.45,24.9-18.96,50.77-18.96v28.15c-16.37,0-23.65,5.54-33.72,13.21-11.09,8.45-24.9,18.96-50.77,18.96Z"/>
        <path class="cls-2" d="M458.91,208.13c-25.87,0-39.68-10.51-50.77-18.96-10.07-7.67-17.35-13.21-33.72-13.21s-23.63,5.54-33.69,13.21c-11.09,8.45-24.89,18.96-50.74,18.96s-39.67-10.52-50.76-18.96c-10.07-7.67-17.34-13.21-33.7-13.21s-23.62,5.54-33.68,13.2c-11.09,8.45-24.89,18.97-50.75,18.97s-39.65-10.52-50.74-18.97c-10.05-7.67-17.32-13.2-33.67-13.2v-28.15c25.85,0,39.65,10.52,50.74,18.97,10.05,7.67,17.32,13.2,33.67,13.2s23.63-5.54,33.69-13.21c11.09-8.45,24.89-18.96,50.74-18.96s39.67,10.52,50.76,18.96c10.07,7.67,17.34,13.21,33.7,13.21s23.62-5.54,33.68-13.2c11.09-8.45,24.89-18.97,50.75-18.97s39.68,10.51,50.77,18.96c10.07,7.67,17.35,13.21,33.72,13.21s23.65-5.54,33.72-13.21c11.09-8.45,24.9-18.96,50.77-18.96v28.15c-16.37,0-23.65,5.54-33.72,13.21-11.09,8.45-24.9,18.96-50.77,18.96Z"/>
        <path class="cls-2" d="M458.91,320.39c-25.87,0-39.68-10.51-50.77-18.96-10.07-7.67-17.35-13.21-33.72-13.21s-23.63,5.54-33.69,13.21c-11.09,8.45-24.89,18.96-50.74,18.96s-39.67-10.52-50.76-18.96c-10.07-7.67-17.34-13.21-33.7-13.21s-23.62,5.54-33.68,13.2c-11.09,8.45-24.89,18.97-50.75,18.97s-39.65-10.52-50.74-18.97c-10.05-7.67-17.32-13.2-33.67-13.2v-28.15c25.85,0,39.65,10.52,50.74,18.97,10.05,7.67,17.32,13.2,33.67,13.2s23.63-5.54,33.69-13.21c11.09-8.45,24.89-18.96,50.74-18.96s39.67,10.52,50.76,18.96c10.07,7.67,17.34,13.21,33.7,13.21s23.62-5.54,33.68-13.2c11.09-8.45,24.89-18.97,50.75-18.97s39.68,10.51,50.77,18.96c10.07,7.67,17.35,13.21,33.72,13.21s23.65-5.54,33.72-13.21c11.09-8.45,24.9-18.96,50.77-18.96v28.15c-16.37,0-23.65,5.54-33.72,13.21-11.09,8.45-24.9,18.96-50.77,18.96Z"/>
        <path class="cls-2" d="M458.91,432.64c-25.87,0-39.68-10.51-50.77-18.96-10.07-7.67-17.35-13.21-33.72-13.21s-23.63,5.54-33.69,13.21c-11.09,8.45-24.89,18.96-50.74,18.96s-39.67-10.52-50.76-18.96c-10.07-7.67-17.34-13.21-33.7-13.21s-23.62,5.54-33.68,13.2c-11.09,8.45-24.89,18.97-50.75,18.97s-39.65-10.52-50.74-18.97c-10.05-7.67-17.32-13.2-33.67-13.2v-28.15c25.85,0,39.65,10.52,50.74,18.97,10.05,7.67,17.32,13.2,33.67,13.2s23.63-5.54,33.69-13.21c11.09-8.45,24.89-18.96,50.74-18.96s39.67,10.52,50.76,18.96c10.07,7.67,17.34,13.21,33.7,13.21s23.62-5.54,33.68-13.2c11.09-8.45,24.89-18.97,50.75-18.97s39.68,10.51,50.77,18.96c10.07,7.67,17.35,13.21,33.72,13.21s23.65-5.54,33.72-13.21c11.09-8.45,24.9-18.96,50.77-18.96v28.15c-16.37,0-23.65,5.54-33.72,13.21-11.09,8.45-24.9,18.96-50.77,18.96Z"/>
        <path class="cls-2" d="M458.91,544.9c-25.87,0-39.68-10.51-50.77-18.96-10.07-7.67-17.35-13.21-33.72-13.21s-23.63,5.54-33.69,13.21c-11.09,8.45-24.89,18.96-50.74,18.96s-39.67-10.52-50.76-18.96c-10.07-7.67-17.34-13.21-33.7-13.21s-23.62,5.54-33.68,13.2c-11.09,8.45-24.89,18.97-50.75,18.97s-39.65-10.52-50.74-18.97c-10.05-7.67-17.32-13.2-33.67-13.2v-28.15c25.85,0,39.65,10.52,50.74,18.97,10.05,7.67,17.32,13.2,33.67,13.2s23.63-5.54,33.69-13.21c11.09-8.45,24.89-18.96,50.74-18.96s39.67,10.52,50.76,18.96c10.07,7.67,17.34,13.21,33.7,13.21s23.62-5.54,33.68-13.2c11.09-8.45,24.89-18.97,50.75-18.97s39.68,10.51,50.77,18.96c10.07,7.67,17.35,13.21,33.72,13.21s23.65-5.54,33.72-13.21c11.09-8.45,24.9-18.96,50.77-18.96v28.15c-16.37,0-23.65,5.54-33.72,13.21-11.09,8.45-24.9,18.96-50.77,18.96Z"/>
      </g>
    </g>
  </g>
</svg>