<?xml version="1.0" encoding="UTF-8"?>
<svg id="Layer_2" data-name="Layer 2" xmlns="http://www.w3.org/2000/svg" viewBox="0 0 400 400">
  <defs>
    <style>
      .cls-1 {
        fill: none;
      }

      .cls-2 {
        fill: #aff8e6;
      }
    </style>
  </defs>
  <g id="Illustrasjon">
    <g>
      <g>
        <rect class="cls-1" x="25" y="25" width="350" height="350"/>
        <rect class="cls-1" x="12.5" y="12.5" width="375" height="375"/>
        <rect class="cls-1" width="400" height="400"/>
      </g>
      <g>
        <path class="cls-2" d="M199.25,108.01c-50.7,0-91.95,41.25-91.95,92s41.25,91.95,91.95,91.95,92-41.25,92-91.95-41.25-92-92-92ZM199.25,271.2c-39.23,0-71.19-31.91-71.19-71.19s31.96-71.24,71.19-71.24,71.24,31.96,71.24,71.24-31.96,71.19-71.24,71.19Z"/>
        <rect class="cls-2" x="188.89" y="316.82" width="20.76" height="58.18"/>
        <rect class="cls-2" x="97.22" y="315.98" width="58.18" height="20.76" transform="translate(-219.48 272.6) rotate(-60.01)"/>
        <rect class="cls-2" x="43.82" y="262.58" width="58.18" height="20.75" transform="translate(-126.72 73.03) rotate(-30)"/>
        <rect class="cls-2" x="24.27" y="189.62" width="58.18" height="20.76"/>
        <rect class="cls-2" x="62.53" y="97.96" width="20.75" height="58.18" transform="translate(-73.57 126.66) rotate(-60)"/>
        <rect class="cls-2" x="115.94" y="44.55" width="20.76" height="58.18" transform="translate(-19.9 73.02) rotate(-30)"/>
        <rect class="cls-2" x="188.89" y="25" width="20.76" height="58.18"/>
        <rect class="cls-2" x="243.13" y="63.26" width="58.18" height="20.76" transform="translate(72.36 272.59) rotate(-60.01)"/>
        <rect class="cls-2" x="296.54" y="116.67" width="58.18" height="20.75" transform="translate(-19.89 179.85) rotate(-30)"/>
        <rect class="cls-2" x="316.09" y="189.62" width="58.18" height="20.76"/>
        <rect class="cls-2" x="315.25" y="243.86" width="20.75" height="58.18" transform="translate(-73.57 418.48) rotate(-60)"/>
        <rect class="cls-2" x="261.84" y="297.27" width="20.76" height="58.18" transform="translate(-126.71 179.84) rotate(-30)"/>
      </g>
    </g>
  </g>
</svg>