<?xml version="1.0" encoding="UTF-8"?>
<svg id="Layer_2" data-name="Layer 2" xmlns="http://www.w3.org/2000/svg" viewBox="0 0 400 400">
  <defs>
    <style>
      .cls-1 {
        fill: none;
      }

      .cls-2 {
        fill: #aff8e6;
      }
    </style>
  </defs>
  <g id="Illustrasjon">
    <g>
      <g>
        <rect class="cls-1" x="25" y="25" width="350" height="350"/>
        <rect class="cls-1" x="12.5" y="12.5" width="375" height="375"/>
        <rect class="cls-1" width="400" height="400"/>
      </g>
      <g>
        <g>
          <path class="cls-2" d="M317.6,219.75c-17.53,0-26.98-6.3-34.57-11.35-6.78-4.52-12.14-8.09-23.79-8.09s-16.99,3.57-23.77,8.09c-7.59,5.06-17.03,11.36-34.56,11.36s-26.98-6.3-34.57-11.36c-6.78-4.52-12.14-8.09-23.78-8.09s-16.99,3.57-23.77,8.09c-7.59,5.06-17.03,11.36-34.55,11.36s-26.96-6.3-34.55-11.36c-6.78-4.52-12.13-8.09-23.77-8.09v-19.45c17.53,0,26.97,6.3,34.55,11.36,6.78,4.52,12.13,8.09,23.76,8.09s16.99-3.57,23.77-8.09c7.59-5.06,17.03-11.36,34.56-11.36s26.97,6.3,34.56,11.36c6.78,4.52,12.14,8.09,23.78,8.09s16.99-3.57,23.77-8.09c7.59-5.06,17.03-11.36,34.55-11.36s26.98,6.3,34.58,11.36c6.78,4.52,12.14,8.09,23.79,8.09s17.01-3.57,23.79-8.09c7.59-5.06,17.04-11.35,34.57-11.35v19.45c-11.65,0-17,3.57-23.79,8.09-7.6,5.06-17.04,11.36-34.58,11.36Z"/>
          <path class="cls-2" d="M317.6,297.3c-17.53,0-26.98-6.3-34.57-11.35-6.78-4.52-12.14-8.09-23.79-8.09s-16.99,3.57-23.77,8.09c-7.59,5.06-17.03,11.36-34.56,11.36s-26.98-6.3-34.57-11.36c-6.78-4.52-12.14-8.09-23.78-8.09s-16.99,3.57-23.77,8.09c-7.59,5.06-17.03,11.36-34.55,11.36s-26.96-6.3-34.55-11.36c-6.78-4.52-12.13-8.09-23.77-8.09v-19.45c17.53,0,26.97,6.3,34.55,11.36,6.78,4.52,12.13,8.09,23.76,8.09s16.99-3.57,23.77-8.09c7.59-5.06,17.03-11.36,34.56-11.36s26.97,6.3,34.56,11.36c6.78,4.52,12.14,8.09,23.78,8.09s16.99-3.57,23.77-8.09c7.59-5.06,17.03-11.36,34.55-11.36s26.98,6.3,34.58,11.36c6.78,4.52,12.14,8.09,23.79,8.09s17.01-3.57,23.79-8.09c7.59-5.06,17.04-11.35,34.57-11.35v19.45c-11.65,0-17,3.57-23.79,8.09-7.6,5.06-17.04,11.36-34.58,11.36Z"/>
          <path class="cls-2" d="M317.6,374.84c-17.53,0-26.98-6.3-34.57-11.35-6.78-4.52-12.14-8.09-23.79-8.09s-16.99,3.57-23.77,8.09c-7.59,5.06-17.03,11.36-34.56,11.36s-26.98-6.3-34.57-11.36c-6.78-4.52-12.14-8.09-23.78-8.09s-16.99,3.57-23.77,8.09c-7.59,5.06-17.03,11.36-34.55,11.36s-26.96-6.3-34.55-11.36c-6.78-4.52-12.13-8.09-23.77-8.09v-19.45c17.53,0,26.97,6.3,34.55,11.36,6.78,4.52,12.13,8.09,23.76,8.09s16.99-3.57,23.77-8.09c7.59-5.06,17.03-11.36,34.56-11.36s26.97,6.3,34.56,11.36c6.78,4.52,12.14,8.09,23.78,8.09s16.99-3.57,23.77-8.09c7.59-5.06,17.03-11.36,34.55-11.36s26.98,6.3,34.58,11.36c6.78,4.52,12.14,8.09,23.79,8.09s17.01-3.57,23.79-8.09c7.59-5.06,17.04-11.35,34.57-11.35v19.45c-11.65,0-17,3.57-23.79,8.09-7.6,5.06-17.04,11.36-34.58,11.36Z"/>
        </g>
        <path class="cls-2" d="M331.39,210.03h-22.22c0-59.69-48.56-108.26-108.26-108.26s-108.26,48.56-108.26,108.26h-22.22c0-71.95,58.53-130.48,130.48-130.48s130.48,58.53,130.48,130.48Z"/>
      </g>
    </g>
  </g>
</svg>