<?xml version="1.0" encoding="UTF-8"?>
<svg id="Layer_2" data-name="Layer 2" xmlns="http://www.w3.org/2000/svg" viewBox="0 0 400 400">
  <defs>
    <style>
      .cls-1 {
        fill: none;
      }

      .cls-2 {
        fill: #aff8e6;
      }
    </style>
  </defs>
  <g id="Illustrasjon">
    <g>
      <g>
        <rect class="cls-1" x="25" y="25" width="350" height="350"/>
        <rect class="cls-1" x="12.5" y="12.5" width="375" height="375"/>
        <rect class="cls-1" width="400" height="400"/>
      </g>
      <path class="cls-2" d="M352.06,283.3c0,39.17-31.86,71.03-71.03,71.03s-71.03-31.87-71.03-71.03v-108.2l59.39.11.04-20.66-59.43-.11v-40.48c19.89-4.65,34.76-22.52,34.76-43.86,0-24.85-20.25-45.1-45.1-45.1s-45.1,20.25-45.1,45.1c0,21.34,14.88,39.21,34.77,43.86,0,0,0,0,0,0v40.44l-57.05-.11-.04,20.66,57.09.11v108.24c0,39.17-31.86,71.03-71.03,71.03s-71.03-31.87-71.03-71.03h-20.66c0,50.56,41.14,91.7,91.7,91.7,35.33,0,66.06-20.09,81.36-49.43,15.31,29.35,46.03,49.43,81.36,49.43,50.56,0,91.7-41.13,91.7-91.7h-20.66ZM175.23,70.1c0-13.48,10.95-24.43,24.43-24.43s24.43,10.95,24.43,24.43-10.95,24.43-24.43,24.43-24.43-10.95-24.43-24.43Z"/>
    </g>
  </g>
</svg>