<?xml version="1.0" encoding="UTF-8"?>
<svg id="Layer_2" data-name="Layer 2" xmlns="http://www.w3.org/2000/svg" viewBox="0 0 400 400">
  <defs>
    <style>
      .cls-1 {
        fill: none;
      }

      .cls-2 {
        fill: #aff8e6;
      }
    </style>
  </defs>
  <g id="Illustrasjon">
    <g>
      <g>
        <rect class="cls-1" x="25" y="25" width="350" height="350"/>
        <rect class="cls-1" x="12.5" y="12.5" width="375" height="375"/>
        <rect class="cls-1" width="400" height="400"/>
      </g>
      <g>
        <path class="cls-2" d="M69.03,75.9c18.05,0,34-8.54,43.66-21.56,9.66,13.02,25.61,21.56,43.66,21.56s34-8.54,43.66-21.56c9.66,13.02,25.61,21.56,43.66,21.56s34-8.54,43.66-21.56c9.66,13.02,25.61,21.56,43.66,21.56,29.42,0,53.36-22.66,53.36-50.51h-19.4c0,17.15-15.23,31.11-33.96,31.11s-33.96-13.96-33.96-31.11h-19.4c0,17.15-15.23,31.11-33.96,31.11s-33.96-13.96-33.96-31.11h-19.4c0,17.15-15.23,31.11-33.96,31.11s-33.96-13.96-33.96-31.11h-19.4c0,17.15-15.23,31.11-33.96,31.11s-33.96-13.96-33.96-31.11H15.67c0,27.85,23.93,50.51,53.36,50.51Z"/>
        <path class="cls-2" d="M330.97,156.07c-18.72,0-33.96-13.96-33.96-31.11h-19.4c0,17.15-15.23,31.11-33.96,31.11s-33.96-13.96-33.96-31.11h-19.4c0,17.15-15.23,31.11-33.96,31.11s-33.96-13.96-33.96-31.11h-19.4c0,17.15-15.23,31.11-33.96,31.11s-33.96-13.96-33.96-31.11H15.67c0,27.85,23.93,50.51,53.36,50.51,18.05,0,34-8.54,43.66-21.56,9.66,13.02,25.61,21.56,43.66,21.56s34-8.54,43.66-21.56c9.66,13.02,25.61,21.56,43.66,21.56s34-8.54,43.66-21.56c9.66,13.02,25.61,21.56,43.66,21.56,29.42,0,53.36-22.66,53.36-50.51h-19.4c0,17.15-15.23,31.11-33.96,31.11Z"/>
        <path class="cls-2" d="M330.97,255.64c-18.72,0-33.96-13.96-33.96-31.11h-19.4c0,17.15-15.23,31.11-33.96,31.11s-33.96-13.96-33.96-31.11h-19.4c0,17.15-15.23,31.11-33.96,31.11s-33.96-13.96-33.96-31.11h-19.4c0,17.15-15.23,31.11-33.96,31.11s-33.96-13.96-33.96-31.11H15.67c0,27.85,23.93,50.51,53.36,50.51,18.05,0,34-8.54,43.66-21.56,9.66,13.02,25.61,21.56,43.66,21.56s34-8.54,43.66-21.56c9.66,13.02,25.61,21.56,43.66,21.56s34-8.54,43.66-21.56c9.66,13.02,25.61,21.56,43.66,21.56,29.42,0,53.36-22.66,53.36-50.51h-19.4c0,17.15-15.23,31.11-33.96,31.11Z"/>
        <path class="cls-2" d="M330.97,355.21c-18.72,0-33.96-13.96-33.96-31.11h-19.4c0,17.15-15.23,31.11-33.96,31.11s-33.96-13.96-33.96-31.11h-19.4c0,17.15-15.23,31.11-33.96,31.11s-33.96-13.96-33.96-31.11h-19.4c0,17.15-15.23,31.11-33.96,31.11s-33.96-13.96-33.96-31.11H15.67c0,27.85,23.93,50.51,53.36,50.51,18.05,0,34-8.54,43.66-21.56,9.66,13.02,25.61,21.56,43.66,21.56s34-8.54,43.66-21.56c9.66,13.02,25.61,21.56,43.66,21.56s34-8.54,43.66-21.56c9.66,13.02,25.61,21.56,43.66,21.56,29.42,0,53.36-22.66,53.36-50.51h-19.4c0,17.15-15.23,31.11-33.96,31.11Z"/>
      </g>
    </g>
  </g>
</svg>