<?xml version="1.0" encoding="UTF-8"?>
<svg id="Layer_2" data-name="Layer 2" xmlns="http://www.w3.org/2000/svg" viewBox="0 0 579.08 579.08">
  <defs>
    <style>
      .cls-1 {
        fill: none;
      }

      .cls-2 {
        fill: #aff8e6;
      }
    </style>
  </defs>
  <g id="Illustrasjon">
    <g>
      <g>
        <rect class="cls-1" x="36.19" y="36.19" width="506.7" height="506.7"/>
        <rect class="cls-1" x="18.1" y="18.1" width="542.89" height="542.89"/>
        <rect class="cls-1" width="579.08" height="579.08"/>
      </g>
      <path class="cls-2" d="M509.68,410.14c0,56.7-46.13,102.83-102.83,102.83s-102.83-46.13-102.83-102.83v-156.65l85.98.16.06-29.92-86.04-.16v-58.6c28.79-6.73,50.33-32.61,50.33-63.49,0-35.97-29.32-65.29-65.29-65.29s-65.29,29.32-65.29,65.29c0,30.89,21.54,56.76,50.33,63.5,0,0,0,0,0,0v58.55l-82.59-.15-.06,29.92,82.65.16v156.7c0,56.7-46.13,102.83-102.83,102.83s-102.83-46.13-102.83-102.83h-29.92c0,73.2,59.55,132.75,132.75,132.75,51.15,0,95.63-29.08,117.79-71.57,22.16,42.49,66.64,71.57,117.79,71.57,73.2,0,132.75-59.55,132.75-132.75h-29.92ZM253.68,101.48c0-19.52,15.85-35.37,35.37-35.37s35.37,15.85,35.37,35.37-15.85,35.37-35.37,35.37-35.37-15.85-35.37-35.37Z"/>
    </g>
  </g>
</svg>