<?xml version="1.0" encoding="UTF-8"?>
<svg id="Layer_2" data-name="Layer 2" xmlns="http://www.w3.org/2000/svg" viewBox="0 0 579.08 579.08">
  <defs>
    <style>
      .cls-1 {
        fill: none;
      }

      .cls-2 {
        fill: #aff8e6;
      }
    </style>
  </defs>
  <g id="Illustrasjon">
    <g>
      <g>
        <rect class="cls-1" x="36.19" y="36.19" width="506.7" height="506.7"/>
        <rect class="cls-1" x="18.1" y="18.1" width="542.89" height="542.89"/>
        <rect class="cls-1" width="579.08" height="579.08"/>
      </g>
      <g>
        <path class="cls-2" d="M99.93,109.32c26.12,0,49.22-12.37,63.2-31.21,13.99,18.84,37.08,31.21,63.2,31.21s49.22-12.37,63.2-31.21c13.99,18.84,37.08,31.21,63.2,31.21s49.22-12.37,63.2-31.21c13.99,18.84,37.08,31.21,63.2,31.21,42.6,0,77.25-32.81,77.25-73.13h-28.09c0,24.83-22.06,45.04-49.16,45.04s-49.16-20.21-49.16-45.04h-28.09c0,24.83-22.06,45.04-49.16,45.04s-49.16-20.21-49.16-45.04h-28.09c0,24.83-22.06,45.04-49.16,45.04s-49.16-20.21-49.16-45.04h-28.09c0,24.83-22.06,45.04-49.16,45.04s-49.16-20.21-49.16-45.04h-28.09c0,40.33,34.65,73.13,77.25,73.13Z"/>
        <path class="cls-2" d="M479.15,225.38c-27.1,0-49.16-20.21-49.16-45.04h-28.09c0,24.83-22.06,45.04-49.16,45.04s-49.16-20.21-49.16-45.04h-28.09c0,24.83-22.06,45.04-49.16,45.04s-49.16-20.21-49.16-45.04h-28.09c0,24.83-22.06,45.04-49.16,45.04s-49.16-20.21-49.16-45.04h-28.09c0,40.33,34.65,73.13,77.25,73.13,26.12,0,49.22-12.37,63.2-31.21,13.99,18.84,37.08,31.21,63.2,31.21s49.22-12.37,63.2-31.21c13.99,18.84,37.08,31.21,63.2,31.21s49.22-12.37,63.2-31.21c13.99,18.84,37.08,31.21,63.2,31.21,42.6,0,77.25-32.81,77.25-73.13h-28.09c0,24.83-22.06,45.04-49.16,45.04Z"/>
        <path class="cls-2" d="M479.15,369.53c-27.1,0-49.16-20.21-49.16-45.04h-28.09c0,24.83-22.06,45.04-49.16,45.04s-49.16-20.21-49.16-45.04h-28.09c0,24.83-22.06,45.04-49.16,45.04s-49.16-20.21-49.16-45.04h-28.09c0,24.83-22.06,45.04-49.16,45.04s-49.16-20.21-49.16-45.04h-28.09c0,40.33,34.65,73.13,77.25,73.13,26.12,0,49.22-12.37,63.2-31.21,13.99,18.84,37.08,31.21,63.2,31.21s49.22-12.37,63.2-31.21c13.99,18.84,37.08,31.21,63.2,31.21s49.22-12.37,63.2-31.21c13.99,18.84,37.08,31.21,63.2,31.21,42.6,0,77.25-32.81,77.25-73.13h-28.09c0,24.83-22.06,45.04-49.16,45.04Z"/>
        <path class="cls-2" d="M479.15,513.69c-27.1,0-49.16-20.21-49.16-45.04h-28.09c0,24.83-22.06,45.04-49.16,45.04s-49.16-20.21-49.16-45.04h-28.09c0,24.83-22.06,45.04-49.16,45.04s-49.16-20.21-49.16-45.04h-28.09c0,24.83-22.06,45.04-49.16,45.04s-49.16-20.21-49.16-45.04h-28.09c0,40.33,34.65,73.13,77.25,73.13,26.12,0,49.22-12.37,63.2-31.21,13.99,18.84,37.08,31.21,63.2,31.21s49.22-12.37,63.2-31.21c13.99,18.84,37.08,31.21,63.2,31.21s49.22-12.37,63.2-31.21c13.99,18.84,37.08,31.21,63.2,31.21,42.6,0,77.25-32.81,77.25-73.13h-28.09c0,24.83-22.06,45.04-49.16,45.04Z"/>
      </g>
    </g>
  </g>
</svg>