<?xml version="1.0" encoding="UTF-8"?>
<svg id="Layer_2" data-name="Layer 2" xmlns="http://www.w3.org/2000/svg" viewBox="0 0 579.08 579.08">
  <defs>
    <style>
      .cls-1 {
        fill: none;
      }

      .cls-2 {
        fill: #aff8e6;
      }
    </style>
  </defs>
  <g id="Illustrasjon">
    <g>
      <g>
        <rect class="cls-1" x="36.19" y="36.19" width="506.7" height="506.7"/>
        <rect class="cls-1" x="18.1" y="18.1" width="542.89" height="542.89"/>
        <rect class="cls-1" width="579.08" height="579.08"/>
      </g>
      <polygon class="cls-2" points="542.89 276.27 325.79 276.27 446.38 155.69 425.15 134.46 304.56 255.05 304.56 37.94 274.53 37.94 274.53 255.04 153.95 134.46 132.72 155.69 253.3 276.27 36.19 276.27 36.19 306.3 253.3 306.3 132.72 426.89 153.95 448.12 274.53 327.53 274.53 544.64 304.56 544.64 304.56 327.53 425.15 448.12 446.38 426.89 325.79 306.3 542.89 306.3 542.89 276.27"/>
    </g>
  </g>
</svg>