<?xml version="1.0" encoding="UTF-8"?>
<svg id="Layer_2" data-name="Layer 2" xmlns="http://www.w3.org/2000/svg" viewBox="0 0 579.08 579.08">
  <defs>
    <style>
      .cls-1 {
        fill: none;
      }

      .cls-2 {
        fill: #aff8e6;
      }
    </style>
  </defs>
  <g id="Illustrasjon">
    <g>
      <g>
        <rect class="cls-1" x="36.19" y="36.19" width="506.7" height="506.7"/>
        <rect class="cls-1" x="18.1" y="18.1" width="542.89" height="542.89"/>
        <rect class="cls-1" width="579.08" height="579.08"/>
      </g>
      <g>
        <path class="cls-2" d="M61.26,542.89h-28.15c0-25.86,10.52-39.65,18.97-50.74,7.67-10.05,13.2-17.32,13.2-33.67s-5.54-23.62-13.2-33.68c-8.45-11.09-18.97-24.89-18.97-50.75s10.52-39.67,18.97-50.76c7.67-10.07,13.2-17.33,13.2-33.7s-5.54-23.62-13.2-33.68c-8.45-11.09-18.97-24.89-18.97-50.75s10.52-39.68,18.96-50.77c7.67-10.07,13.21-17.34,13.21-33.71s-5.54-23.65-13.21-33.72c-8.44-11.09-18.96-24.9-18.96-50.77h28.15c0,16.37,5.54,23.65,13.21,33.72,8.44,11.09,18.96,24.9,18.96,50.77s-10.52,39.68-18.96,50.77c-7.67,10.07-13.21,17.35-13.21,33.72s5.54,23.63,13.2,33.69c8.45,11.09,18.97,24.89,18.97,50.74s-10.52,39.67-18.97,50.76c-7.67,10.07-13.2,17.33-13.2,33.7s5.54,23.63,13.2,33.69c8.45,11.09,18.97,24.89,18.97,50.74s-10.52,39.65-18.97,50.74c-7.67,10.05-13.2,17.32-13.2,33.67Z"/>
        <path class="cls-2" d="M173.51,542.89h-28.15c0-25.86,10.52-39.65,18.97-50.74,7.67-10.05,13.2-17.32,13.2-33.67s-5.54-23.62-13.2-33.68c-8.45-11.09-18.97-24.89-18.97-50.75s10.52-39.67,18.97-50.76c7.67-10.07,13.2-17.33,13.2-33.7s-5.54-23.62-13.2-33.68c-8.45-11.09-18.97-24.89-18.97-50.75s10.52-39.68,18.96-50.77c7.67-10.07,13.21-17.34,13.21-33.71s-5.54-23.65-13.21-33.72c-8.44-11.09-18.96-24.9-18.96-50.77h28.15c0,16.37,5.54,23.65,13.21,33.72,8.44,11.09,18.96,24.9,18.96,50.77s-10.52,39.68-18.96,50.77c-7.67,10.07-13.21,17.35-13.21,33.72s5.54,23.63,13.2,33.69c8.45,11.09,18.97,24.89,18.97,50.74s-10.52,39.67-18.97,50.76c-7.67,10.07-13.2,17.33-13.2,33.7s5.54,23.63,13.2,33.69c8.45,11.09,18.97,24.89,18.97,50.74s-10.52,39.65-18.97,50.74c-7.67,10.05-13.2,17.32-13.2,33.67Z"/>
        <path class="cls-2" d="M285.76,542.89h-28.15c0-25.86,10.52-39.65,18.97-50.74,7.67-10.05,13.2-17.32,13.2-33.67s-5.54-23.62-13.2-33.68c-8.45-11.09-18.97-24.89-18.97-50.75s10.52-39.67,18.97-50.76c7.67-10.07,13.2-17.33,13.2-33.7s-5.54-23.62-13.2-33.68c-8.45-11.09-18.97-24.89-18.97-50.75s10.52-39.68,18.96-50.77c7.67-10.07,13.21-17.34,13.21-33.71s-5.54-23.65-13.21-33.72c-8.44-11.09-18.96-24.9-18.96-50.77h28.15c0,16.37,5.54,23.65,13.21,33.72,8.44,11.09,18.96,24.9,18.96,50.77s-10.52,39.68-18.96,50.77c-7.67,10.07-13.21,17.35-13.21,33.72s5.54,23.63,13.2,33.69c8.45,11.09,18.97,24.89,18.97,50.74s-10.52,39.67-18.97,50.76c-7.67,10.07-13.2,17.33-13.2,33.7s5.54,23.63,13.2,33.69c8.45,11.09,18.97,24.89,18.97,50.74s-10.52,39.65-18.97,50.74c-7.67,10.05-13.2,17.32-13.2,33.67Z"/>
        <path class="cls-2" d="M398.02,542.89h-28.15c0-25.86,10.52-39.65,18.97-50.74,7.67-10.05,13.2-17.32,13.2-33.67s-5.54-23.62-13.2-33.68c-8.45-11.09-18.97-24.89-18.97-50.75s10.52-39.67,18.97-50.76c7.67-10.07,13.2-17.33,13.2-33.7s-5.54-23.62-13.2-33.68c-8.45-11.09-18.97-24.89-18.97-50.75s10.52-39.68,18.96-50.77c7.67-10.07,13.21-17.34,13.21-33.71s-5.54-23.65-13.21-33.72c-8.44-11.09-18.96-24.9-18.96-50.77h28.15c0,16.37,5.54,23.65,13.21,33.72,8.44,11.09,18.96,24.9,18.96,50.77s-10.52,39.68-18.96,50.77c-7.67,10.07-13.21,17.35-13.21,33.72s5.54,23.63,13.2,33.69c8.45,11.09,18.97,24.89,18.97,50.74s-10.52,39.67-18.97,50.76c-7.67,10.07-13.2,17.33-13.2,33.7s5.54,23.63,13.2,33.69c8.45,11.09,18.97,24.89,18.97,50.74s-10.52,39.65-18.97,50.74c-7.67,10.05-13.2,17.32-13.2,33.67Z"/>
        <path class="cls-2" d="M510.27,542.89h-28.15c0-25.86,10.52-39.65,18.97-50.74,7.67-10.05,13.2-17.32,13.2-33.67s-5.54-23.62-13.2-33.68c-8.45-11.09-18.97-24.89-18.97-50.75s10.52-39.67,18.97-50.76c7.67-10.07,13.2-17.33,13.2-33.7s-5.54-23.62-13.2-33.68c-8.45-11.09-18.97-24.89-18.97-50.75s10.52-39.68,18.96-50.77c7.67-10.07,13.21-17.34,13.21-33.71s-5.54-23.65-13.21-33.72c-8.44-11.09-18.96-24.9-18.96-50.77h28.15c0,16.37,5.54,23.65,13.21,33.72,8.44,11.09,18.96,24.9,18.96,50.77s-10.52,39.68-18.96,50.77c-7.67,10.07-13.21,17.35-13.21,33.72s5.54,23.63,13.2,33.69c8.45,11.09,18.97,24.89,18.97,50.74s-10.52,39.67-18.97,50.76c-7.67,10.07-13.2,17.33-13.2,33.7s5.54,23.63,13.2,33.69c8.45,11.09,18.97,24.89,18.97,50.74s-10.52,39.65-18.97,50.74c-7.67,10.05-13.2,17.32-13.2,33.67Z"/>
      </g>
    </g>
  </g>
</svg>