<?xml version="1.0" encoding="UTF-8"?>
<svg id="Layer_2" data-name="Layer 2" xmlns="http://www.w3.org/2000/svg" viewBox="0 0 579.08 579.08">
  <defs>
    <style>
      .cls-1 {
        fill: none;
      }

      .cls-2 {
        fill: #adf9e6;
      }
    </style>
  </defs>
  <g id="Illustrasjon">
    <g>
      <g>
        <rect class="cls-1" x="36.19" y="36.19" width="506.7" height="506.7"/>
        <rect class="cls-1" x="18.1" y="18.1" width="542.89" height="542.89"/>
        <rect class="cls-1" width="579.08" height="579.08"/>
      </g>
      <g>
        <path class="cls-2" d="M262.2,371.35l-14.97,5.95-15.05,6.04-64.78,25.75,25.75-64.78,6.04-15.05,5.95-14.97-30.82-9.82-5.95,14.97-5.95,15.05-24.95,62.69-27.6,69.44,69.44-27.6,62.69-24.95,14.97-5.96,15.05-5.95-9.82-30.82ZM396.98,137.75l-62.77,24.95-14.97,5.96-15.05,5.95,9.82,30.74,14.97-5.96,15.05-5.95,64.86-25.83-25.83,64.86-5.95,14.97-6.04,15.05,30.82,9.82,5.95-15.05,5.95-14.97,24.95-62.77,27.68-69.44-69.45,27.68ZM242,162.7l-62.69-24.95-69.44-27.68,27.6,69.44,24.95,62.77,5.95,14.97,5.95,15.05,30.82-9.82-5.95-15.05-5.95-14.97-25.83-64.86,64.78,25.83,15.05,5.95,14.97,5.96,9.82-30.74-15.05-5.95-14.97-5.96ZM438.75,397.19l-24.95-62.69-5.95-15.05-5.95-14.97-30.82,9.82,5.95,14.97,6.04,15.05,25.83,64.78-64.86-25.83-15.05-5.95-14.97-5.95-9.82,30.82,15.05,5.95,14.97,5.96,62.77,24.95,69.45,27.6-27.68-69.44Z"/>
        <g>
          <path class="cls-2" d="M407.85,257.25l-30.74-9.82-36.45-11.59-11.67-36.45-9.74-30.74-31.14-97.53-31.14,97.53-9.74,30.74-11.67,36.45-36.37,11.59-30.82,9.82-97.53,31.14,97.53,31.06,30.82,9.82,36.37,11.59,11.67,36.45,9.74,30.82,31.14,97.53,31.14-97.53,9.74-30.82,11.67-36.45,36.37-11.59,30.82-9.82,97.53-31.06-97.53-31.14ZM401.89,304.49l-30.82,9.82-43.21,13.76-13.84,43.29-9.82,30.82-16.09,50.45-16.09-50.45-9.82-30.82-13.76-43.29-43.29-13.76-30.82-9.82-50.45-16.09,50.45-16.09,30.82-9.82,43.29-13.84,13.76-43.29,9.82-30.74,16.09-50.53,16.09,50.53,9.82,30.74,13.84,43.29,43.21,13.84,30.82,9.82,50.53,16.09-50.53,16.09Z"/>
          <path class="cls-2" d="M413.8,242.28l-30.74-9.82-29.61-9.42-9.41-29.61-9.82-30.74-46.11-144.6-46.11,144.6-9.82,30.74-9.41,29.61-29.53,9.42-30.82,9.82-144.52,46.11,144.52,46.11,30.74,9.82,29.61,9.42,9.41,29.61,9.82,30.74,46.11,144.52,46.11-144.52,9.82-30.82,9.41-29.53,29.61-9.42,30.74-9.82,144.52-46.11-144.52-46.11ZM327.86,328.06l-13.84,43.29-9.82,30.82-16.09,50.45-16.09-50.45-9.82-30.82-13.76-43.29-43.29-13.76-30.82-9.82-50.45-16.09,50.45-16.09,30.82-9.82,43.29-13.84,13.76-43.29,9.82-30.74,16.09-50.53,16.09,50.53,9.82,30.74,13.84,43.29,43.21,13.84,30.82,9.82,50.53,16.09-50.53,16.09-30.82,9.82-43.21,13.76Z"/>
        </g>
      </g>
    </g>
  </g>
</svg>