<?xml version="1.0" encoding="UTF-8"?>
<svg id="Layer_2" data-name="Layer 2" xmlns="http://www.w3.org/2000/svg" viewBox="0 0 579.08 579.08">
  <defs>
    <style>
      .cls-1 {
        fill: none;
      }

      .cls-2 {
        fill: #adf9e6;
      }
    </style>
  </defs>
  <g id="Illustrasjon">
    <g>
      <g>
        <rect class="cls-1" x="36.19" y="36.19" width="506.7" height="506.7"/>
        <rect class="cls-1" x="18.1" y="18.1" width="542.89" height="542.89"/>
        <rect class="cls-1" width="579.08" height="579.08"/>
      </g>
      <g>
        <path class="cls-2" d="M332.43,53.1v145.73c-13.18-6.2-27.88-9.73-43.37-9.73s-30.18,3.53-43.37,9.73V53.1c1.01-.22,2.02-.43,3.03-.58,13.11-2.16,26.58-3.31,40.34-3.31s27.23,1.15,40.34,3.31c1.01.14,2.02.36,3.03.58Z"/>
        <path class="cls-2" d="M332.43,381.96v145.73c-1.01.22-2.02.43-3.03.58-13.11,2.16-26.58,3.31-40.34,3.31s-27.23-1.15-40.34-3.31c-1.01-.14-2.02-.36-3.03-.58v-145.73c13.18,6.2,27.88,9.73,43.37,9.73s30.18-3.53,43.37-9.73Z"/>
        <path class="cls-2" d="M199.73,338.09H52.56c-.22-1.08-.43-2.23-.65-3.32-2.67-14.34-4.03-29.25-4.03-44.37,0-12.39.94-24.49,2.67-36.38.14-.94.29-1.8.5-2.74h144.58c-5.04,12.03-7.85,25.29-7.85,39.12,0,17.22,4.32,33.5,11.96,47.69Z"/>
        <path class="cls-2" d="M530.24,290.4c0,15.13-1.37,30.04-4.03,44.37-.22,1.08-.43,2.23-.65,3.32h-147.17c7.64-14.19,11.96-30.47,11.96-47.69,0-13.83-2.81-27.09-7.85-39.12h144.58c.22.94.36,1.8.5,2.74,1.73,11.89,2.67,23.99,2.67,36.38Z"/>
        <path class="cls-2" d="M289.06,408.48c-65.11,0-118.08-52.97-118.08-118.08s52.97-118.09,118.08-118.09,118.09,52.97,118.09,118.09-52.98,118.08-118.09,118.08ZM289.06,202.94c-48.22,0-87.45,39.24-87.45,87.46s39.23,87.46,87.45,87.46,87.46-39.23,87.46-87.46-39.23-87.46-87.46-87.46Z"/>
        <path class="cls-2" d="M289.06,544.23c-139.96,0-253.83-113.87-253.83-253.83S149.1,36.57,289.06,36.57s253.84,113.87,253.84,253.83-113.87,253.83-253.84,253.83ZM289.06,67.2c-123.07,0-223.2,100.13-223.2,223.21s100.13,223.21,223.2,223.21,223.21-100.13,223.21-223.21-100.13-223.21-223.21-223.21Z"/>
      </g>
    </g>
  </g>
</svg>