<?xml version="1.0" encoding="UTF-8"?>
<svg id="Layer_2" data-name="Layer 2" xmlns="http://www.w3.org/2000/svg" viewBox="0 0 579.08 579.08">
  <defs>
    <style>
      .cls-1 {
        fill: none;
      }

      .cls-2 {
        fill: #aff8e6;
      }
    </style>
  </defs>
  <g id="Illustrasjon">
    <g>
      <g>
        <rect class="cls-1" x="36.19" y="36.19" width="506.7" height="506.7"/>
        <rect class="cls-1" x="18.1" y="18.1" width="542.89" height="542.89"/>
        <rect class="cls-1" width="579.08" height="579.08"/>
      </g>
      <g>
        <path class="cls-2" d="M457.98,350.53c-27.63,0-41.65-16.81-52.91-30.32-10.77-12.92-17.54-20.23-31.37-20.23s-20.56,7.31-31.32,20.22c-11.26,13.51-25.26,30.32-52.9,30.32s-41.64-16.81-52.9-30.32c-10.76-12.92-17.52-20.22-31.34-20.22s-20.56,7.31-31.32,20.22c-11.26,13.51-25.26,30.32-52.9,30.32s-41.63-16.81-52.88-30.32c-10.75-12.91-17.51-20.22-31.31-20.22v-28.06c27.63,0,41.63,16.81,52.88,30.32,10.75,12.91,17.51,20.22,31.31,20.22s20.57-7.31,31.33-20.22c11.26-13.51,25.26-30.32,52.89-30.32s41.64,16.81,52.9,30.32c10.76,12.92,17.52,20.22,31.34,20.22s20.57-7.31,31.33-20.22c11.26-13.51,25.26-30.32,52.89-30.32s41.66,16.81,52.92,30.32c10.77,12.92,17.54,20.22,31.36,20.22s20.59-7.31,31.36-20.22c11.26-13.51,25.27-30.32,52.91-30.32v28.06c-13.82,0-20.59,7.31-31.36,20.22-11.26,13.51-25.27,30.32-52.91,30.32Z"/>
        <path class="cls-2" d="M457.98,445.81c-27.63,0-41.65-16.81-52.91-30.32-10.77-12.92-17.54-20.23-31.37-20.23s-20.56,7.31-31.32,20.22c-11.26,13.51-25.26,30.32-52.9,30.32s-41.64-16.81-52.9-30.32c-10.76-12.92-17.52-20.22-31.34-20.22s-20.56,7.31-31.32,20.22c-11.26,13.51-25.26,30.32-52.9,30.32s-41.63-16.81-52.88-30.32c-10.75-12.91-17.51-20.22-31.31-20.22v-28.06c27.63,0,41.63,16.81,52.88,30.32,10.75,12.91,17.51,20.22,31.31,20.22s20.57-7.31,31.33-20.22c11.26-13.51,25.26-30.32,52.89-30.32s41.64,16.81,52.9,30.32c10.76,12.92,17.52,20.22,31.34,20.22s20.57-7.31,31.33-20.22c11.26-13.51,25.26-30.32,52.89-30.32s41.66,16.81,52.92,30.32c10.77,12.92,17.54,20.22,31.36,20.22s20.59-7.31,31.36-20.22c11.26-13.51,25.27-30.32,52.91-30.32v28.06c-13.82,0-20.59,7.31-31.36,20.22-11.26,13.51-25.27,30.32-52.91,30.32Z"/>
        <path class="cls-2" d="M457.98,541.09c-27.63,0-41.65-16.81-52.91-30.32-10.77-12.92-17.54-20.23-31.37-20.23s-20.56,7.31-31.32,20.22c-11.26,13.51-25.26,30.32-52.9,30.32s-41.64-16.81-52.9-30.32c-10.76-12.92-17.52-20.22-31.34-20.22s-20.56,7.31-31.32,20.22c-11.26,13.51-25.26,30.32-52.9,30.32s-41.63-16.81-52.88-30.32c-10.75-12.91-17.51-20.22-31.31-20.22v-28.06c27.63,0,41.63,16.81,52.88,30.32,10.75,12.91,17.51,20.22,31.31,20.22s20.57-7.31,31.33-20.22c11.26-13.51,25.26-30.32,52.89-30.32s41.64,16.81,52.9,30.32c10.76,12.92,17.52,20.22,31.34,20.22s20.57-7.31,31.33-20.22c11.26-13.51,25.26-30.32,52.89-30.32s41.66,16.81,52.92,30.32c10.77,12.92,17.54,20.22,31.36,20.22s20.59-7.31,31.36-20.22c11.26-13.51,25.27-30.32,52.91-30.32v28.06c-13.82,0-20.59,7.31-31.36,20.22-11.26,13.51-25.27,30.32-52.91,30.32Z"/>
      </g>
      <path class="cls-2" d="M331.39,308.54l-32.07-119.94,16.31-1.73c4.76-.52,104.45-12.71,128.05-107.5-16.46,5.54-36.43,6.61-53.45,7.51-14.64.78-28.46,1.52-38.75,4.21-33.11,8.64-49.86,34.69-50.03,34.95l-12.01,19.03-11.84-19.09c-.13-.2-16.89-26.26-50-34.89-10.29-2.68-24.12-3.42-38.75-4.21-17.03-.91-36.99-1.98-53.45-7.51,23.6,94.79,123.29,106.98,128.08,107.51l16.24,1.79-32.02,119.88-27.11-7.25,23.94-89.53c-40.18-9.51-142.16-46.39-142.16-175.36h28.06c0,16.58,17.67,20.2,59.92,22.45,15.39.82,31.31,1.68,44.34,5.07,25.94,6.77,44.09,21.31,54.86,32.52,10.77-11.2,28.92-25.75,54.86-32.52,13.03-3.4,28.94-4.25,44.33-5.07,42.26-2.26,59.93-5.88,59.93-22.45h28.06c0,128.97-101.99,165.84-142.16,175.36l23.94,89.53-27.11,7.25Z"/>
    </g>
  </g>
</svg>