<?xml version="1.0" encoding="UTF-8"?>
<svg id="Layer_2" data-name="Layer 2" xmlns="http://www.w3.org/2000/svg" viewBox="0 0 579.08 579.08">
  <defs>
    <style>
      .cls-1 {
        fill: none;
      }

      .cls-2 {
        fill: #adf9e6;
      }
    </style>
  </defs>
  <g id="Illustrasjon">
    <g>
      <g>
        <rect class="cls-1" x="36.19" y="36.19" width="506.7" height="506.7"/>
        <rect class="cls-1" x="18.1" y="18.1" width="542.89" height="542.89"/>
        <rect class="cls-1" width="579.08" height="579.08"/>
      </g>
      <path class="cls-2" d="M491.88,273.43c-3.46-43.99-20.91-84.04-47.93-115.65-6.92-8.12-14.48-15.76-22.68-22.76-31.61-27.02-71.74-44.47-115.65-47.85-5.31-.4-10.62-.64-16-.64s-10.86.24-16.16.72c-44.07,3.38-84.04,20.83-115.65,47.77-8.2,7.08-15.76,14.64-22.68,22.84-27.02,31.61-44.47,71.57-47.93,115.57-.4,5.31-.64,10.7-.64,16.08s.24,10.78.64,16.08c3.46,43.99,20.91,83.96,47.93,115.57,6.92,8.2,14.48,15.76,22.68,22.76,31.61,27.02,71.58,44.47,115.65,47.85,5.31.48,10.7.72,16.16.72s10.7-.24,16-.64c43.91-3.38,84.04-20.83,115.65-47.85,8.2-7.08,15.84-14.64,22.68-22.84,27.02-31.61,44.47-71.58,47.93-115.57.4-5.31.64-10.7.64-16.08s-.24-10.78-.64-16.08ZM305.63,459.53c-5.23.56-10.62.8-16,.8s-10.86-.24-16.16-.8c-81.39-7.64-146.37-72.62-153.93-153.93-.56-5.31-.8-10.7-.8-16.08s.24-10.78.8-16.08c7.56-81.31,72.54-146.29,153.93-153.93,5.31-.56,10.7-.8,16.16-.8s10.78.24,16,.8c81.39,7.56,146.37,72.54,153.93,153.93.56,5.31.8,10.7.8,16.08s-.24,10.78-.8,16.08c-7.56,81.39-72.54,146.37-153.93,153.93Z"/>
      <g>
        <path class="cls-2" d="M305.63,18.1v239.82c-4.83-2.49-10.29-3.86-16.08-3.86s-11.26,1.37-16.08,3.94V18.1h32.17Z"/>
        <path class="cls-2" d="M289.54,324.9c5.79,0,11.26-1.37,16.08-3.86v239.9h-32.17v-239.9c4.83,2.49,10.29,3.86,16.08,3.86Z"/>
      </g>
      <g>
        <path class="cls-2" d="M258.02,273.43c-2.49,4.83-3.86,10.29-3.86,16.08s1.37,11.26,3.86,16.08H18.12v-32.17h239.9Z"/>
        <path class="cls-2" d="M560.96,273.43v32.17h-239.82c2.41-4.83,3.86-10.29,3.86-16.08s-1.45-11.26-3.86-16.08h239.82Z"/>
      </g>
      <rect class="cls-2" x="410.81" y="110.75" width="82.77" height="32.17" transform="translate(42.76 356.89) rotate(-45)"/>
      <rect class="cls-2" x="85.69" y="436.57" width="81.35" height="32.17" transform="translate(-283.06 221.93) rotate(-45)"/>
      <rect class="cls-2" x="110.28" y="85.65" width="32.17" height="81.35" transform="translate(-52.32 126.35) rotate(-45)"/>
      <rect class="cls-2" x="436.11" y="410.77" width="32.17" height="82.76" transform="translate(-187.28 452.2) rotate(-45)"/>
      <g>
        <path class="cls-2" d="M338.44,273.43c-5.07-15.44-17.37-27.75-32.81-32.81-5.07-1.77-10.45-2.65-16.08-2.65s-11.02.89-16.08,2.57c-15.52,5.07-27.83,17.37-32.89,32.89-1.69,5.07-2.57,10.45-2.57,16.08s.89,11.02,2.65,16.08c5.07,15.44,17.37,27.75,32.81,32.81,5.07,1.69,10.45,2.57,16.08,2.57s11.02-.88,16.08-2.65c15.44-4.99,27.75-17.29,32.73-32.73,1.77-5.07,2.65-10.45,2.65-16.08s-.89-11.02-2.57-16.08ZM305.63,321.04c-4.83,2.49-10.29,3.86-16.08,3.86s-11.26-1.37-16.08-3.86c-6.67-3.46-12.06-8.85-15.44-15.44-2.49-4.83-3.86-10.29-3.86-16.08s1.37-11.26,3.86-16.08c3.38-6.59,8.77-12.06,15.44-15.44,4.83-2.57,10.29-3.94,16.08-3.94s11.26,1.37,16.08,3.86c6.67,3.46,12.14,8.85,15.52,15.52,2.41,4.83,3.86,10.29,3.86,16.08s-1.45,11.26-3.86,16.08c-3.38,6.59-8.85,12.06-15.52,15.44Z"/>
        <path class="cls-2" d="M355.25,273.43c-5.95-24.45-25.17-43.67-49.62-49.62-5.15-1.29-10.53-1.93-16.08-1.93s-10.94.64-16.08,1.93c-24.37,5.95-43.59,25.17-49.54,49.62-1.29,5.15-1.93,10.54-1.93,16.08s.64,10.94,1.93,16.08c5.95,24.37,25.17,43.59,49.54,49.54,5.15,1.29,10.53,1.93,16.08,1.93s10.94-.64,16.08-1.93c24.45-5.95,43.67-25.17,49.62-49.54,1.29-5.15,1.93-10.54,1.93-16.08s-.64-10.94-1.93-16.08ZM325.01,289.52c0,5.79-1.45,11.26-3.86,16.08-3.38,6.59-8.85,12.06-15.52,15.44-4.83,2.49-10.29,3.86-16.08,3.86s-11.26-1.37-16.08-3.86c-6.67-3.46-12.06-8.85-15.44-15.44-2.49-4.83-3.86-10.29-3.86-16.08s1.37-11.26,3.86-16.08c3.38-6.59,8.77-12.06,15.44-15.44,4.83-2.57,10.29-3.94,16.08-3.94s11.26,1.37,16.08,3.86c6.67,3.46,12.14,8.85,15.52,15.52,2.41,4.83,3.86,10.29,3.86,16.08Z"/>
      </g>
    </g>
  </g>
</svg>