<?xml version="1.0" encoding="UTF-8"?>
<svg id="Layer_2" data-name="Layer 2" xmlns="http://www.w3.org/2000/svg" viewBox="0 0 579.08 579.08">
  <defs>
    <style>
      .cls-1 {
        fill: none;
      }

      .cls-2 {
        fill: #aff8e6;
      }
    </style>
  </defs>
  <g id="Illustrasjon">
    <g>
      <g>
        <rect class="cls-1" x="36.19" y="36.19" width="506.7" height="506.7"/>
        <rect class="cls-1" x="18.1" y="18.1" width="542.89" height="542.89"/>
        <rect class="cls-1" width="579.08" height="579.08"/>
      </g>
      <g>
        <path class="cls-2" d="M416.21,542.89c-42.4,0-61.41-45.64-78.2-85.91-13.54-32.5-27.54-66.11-48.48-66.11s-34.95,33.61-48.49,66.11c-16.77,40.27-35.78,85.9-78.17,85.9s-61.41-45.64-78.19-85.91c-13.53-32.5-27.54-66.1-48.48-66.1v-32.17c42.39,0,61.41,45.64,78.17,85.9,13.54,32.5,27.55,66.11,48.49,66.11s34.94-33.6,48.48-66.1c16.78-40.27,35.79-85.91,78.19-85.91s61.41,45.64,78.18,85.9c13.55,32.5,27.55,66.11,48.5,66.11s34.95-33.61,48.5-66.11c16.78-40.27,35.79-85.9,78.18-85.9v32.17c-20.95,0-34.94,33.6-48.48,66.11-16.78,40.27-35.8,85.91-78.2,85.91Z"/>
        <path class="cls-2" d="M416.21,381.72c-42.4,0-61.41-45.64-78.2-85.91-13.54-32.5-27.54-66.1-48.48-66.1s-34.95,33.61-48.49,66.11c-16.77,40.26-35.78,85.9-78.17,85.9s-61.41-45.64-78.18-85.9c-13.54-32.5-27.54-66.11-48.48-66.11v-32.17c42.39,0,61.41,45.64,78.18,85.9,13.54,32.5,27.54,66.11,48.48,66.11s34.94-33.6,48.48-66.1c16.78-40.27,35.8-85.91,78.19-85.91s61.41,45.64,78.18,85.9c13.55,32.5,27.55,66.11,48.5,66.11s34.95-33.61,48.5-66.11c16.78-40.26,35.79-85.9,78.18-85.9v32.17c-20.95,0-34.94,33.6-48.48,66.1-16.78,40.27-35.8,85.91-78.2,85.91Z"/>
        <path class="cls-2" d="M416.21,220.56c-42.4,0-61.41-45.64-78.2-85.91-13.54-32.5-27.54-66.1-48.48-66.1s-34.95,33.61-48.49,66.11c-16.77,40.26-35.78,85.9-78.17,85.9s-61.41-45.64-78.17-85.9c-13.54-32.5-27.55-66.11-48.49-66.11v-32.17c42.39,0,61.41,45.64,78.19,85.91,13.53,32.5,27.54,66.1,48.48,66.1s34.94-33.6,48.48-66.1c16.78-40.27,35.8-85.91,78.19-85.91s61.41,45.64,78.18,85.9c13.55,32.5,27.55,66.11,48.5,66.11s34.95-33.61,48.5-66.11c16.78-40.26,35.79-85.9,78.18-85.9v32.17c-20.95,0-34.94,33.6-48.48,66.1-16.78,40.27-35.8,85.91-78.2,85.91Z"/>
      </g>
    </g>
  </g>
</svg>