<?xml version="1.0" encoding="UTF-8"?>
<svg id="Layer_2" data-name="Layer 2" xmlns="http://www.w3.org/2000/svg" viewBox="0 0 579.08 579.08">
  <defs>
    <style>
      .cls-1 {
        fill: none;
      }

      .cls-2 {
        fill: #aff8e6;
      }
    </style>
  </defs>
  <g id="Illustrasjon">
    <g>
      <g>
        <rect class="cls-1" x="36.19" y="36.19" width="506.7" height="506.7"/>
        <rect class="cls-1" x="18.1" y="18.1" width="542.89" height="542.89"/>
        <rect class="cls-1" width="579.08" height="579.08"/>
      </g>
      <g>
        <g>
          <path class="cls-2" d="M303.96,36.68v208.45c-4.74-1.65-9.85-2.48-15.04-2.48s-10.3.83-15.04,2.48V36.68h30.08Z"/>
          <path class="cls-2" d="M288.92,337.18c5.19,0,10.3-.83,15.04-2.48v207.33h-30.08v-207.33c4.74,1.65,9.85,2.48,15.04,2.48Z"/>
        </g>
        <polygon class="cls-2" points="288.89 165.26 194.62 70.98 215.88 49.72 288.89 122.72 361.9 49.72 383.17 70.98 288.89 165.26"/>
        <polygon class="cls-2" points="215.88 529.54 194.62 508.28 288.89 414 383.17 508.28 361.9 529.54 288.89 456.54 215.88 529.54"/>
        <g>
          <path class="cls-2" d="M244.18,246.49l13.61,7.82c-.83.68-1.58,1.43-2.33,2.18-6.62,6.62-11.06,14.81-12.86,23.76l-13.54-7.82-13.31-7.67-51.36-29.63-36.85-21.28-65.27-37.67,15.04-26.02,65.87,37.98,36.77,21.28,50.91,29.33,13.31,7.75Z"/>
          <path class="cls-2" d="M514.98,402.75l-15.04,26.09-63.69-36.77-36.77-21.21-52.19-30.16-13.39-7.75-13.54-7.82c.68-.53,1.35-1.13,2.03-1.81,6.69-6.69,11.13-15.11,12.93-24.21v-.08l13.54,7.82,13.31,7.67v.08l51.66,29.78,36.85,21.21,64.3,37.15Z"/>
        </g>
        <polygon class="cls-2" points="56.6 264 48.81 234.95 148.55 208.23 121.82 108.5 150.88 100.71 185.38 229.5 56.6 264"/>
        <polygon class="cls-2" points="428.3 478.5 393.79 349.72 522.57 315.22 530.36 344.27 430.63 370.99 457.35 470.72 428.3 478.5"/>
        <g>
          <path class="cls-2" d="M255.46,323.34c.68.68,1.35,1.28,2.03,1.81l-13.61,7.82-13.31,7.75-50.61,29.18-36.85,21.28-65.27,37.68-15.04-26.09,64.75-37.37,36.85-21.28,51.21-29.48v-.08l13.31-7.67,13.61-7.82v.08c1.8,9.1,6.24,17.52,12.94,24.21Z"/>
          <path class="cls-2" d="M515.5,176.18l-64.82,37.45-36.85,21.21-51.81,29.93-13.31,7.67-13.46,7.82c-1.88-8.95-6.32-17.15-12.86-23.76-.75-.75-1.5-1.5-2.33-2.18l13.54-7.82,13.39-7.75,52.49-30.31,36.77-21.21,64.22-37.07,15.04,26.02Z"/>
        </g>
        <g>
          <path class="cls-2" d="M348.71,272.43c-2.71-9.48-7.75-18.42-15.12-25.94-.15-.23-.38-.45-.6-.68-8.35-8.35-18.35-13.76-29.03-16.39-4.89-1.28-10-1.88-15.04-1.88s-10.08.6-15.04,1.88c-10.68,2.56-20.76,8.05-29.1,16.39-.22.23-.45.45-.6.68-7.37,7.52-12.33,16.47-15.12,25.94-3.31,11.2-3.31,23.16-.15,34.44,2.71,9.48,7.67,18.5,14.96,26.09.23.38.6.68.9,1.05,8.35,8.27,18.42,13.76,29.1,16.32,4.96,1.28,10,1.88,15.04,1.88s10.15-.6,15.04-1.88c10.68-2.56,20.68-8.05,29.03-16.32.3-.38.68-.68.9-1.05,7.37-7.6,12.33-16.62,14.96-26.09,1.58-5.56,2.33-11.28,2.33-16.99s-.83-11.73-2.48-17.45ZM335.32,299.13c-1.8,9.1-6.24,17.52-12.93,24.21-.68.68-1.35,1.28-2.03,1.81-4.81,4.36-10.38,7.59-16.39,9.55-4.74,1.65-9.85,2.48-15.04,2.48s-10.3-.83-15.04-2.48c-6.02-1.96-11.58-5.19-16.39-9.55-.68-.53-1.35-1.13-2.03-1.81-6.69-6.69-11.13-15.11-12.94-24.21v-.08c-.6-3.01-.9-6.02-.9-9.17s.3-6.47.98-9.63c1.8-8.95,6.24-17.15,12.86-23.76.75-.75,1.5-1.5,2.33-2.18,4.74-4.14,10.23-7.29,16.09-9.17,4.74-1.65,9.85-2.48,15.04-2.48s10.3.83,15.04,2.48c5.87,1.88,11.36,5.04,16.09,9.17.83.68,1.58,1.43,2.33,2.18,6.54,6.62,10.98,14.81,12.86,23.76.68,3.16.98,6.39.98,9.63s-.3,6.17-.9,9.17v.08Z"/>
          <path class="cls-2" d="M362.02,264.76c-3.16-9.4-8.2-18.27-15.04-26.02-1.13-1.2-2.26-2.41-3.38-3.53-11.28-11.2-25.12-18.27-39.63-21.13-9.93-1.96-20.15-1.96-30.08,0-14.59,2.86-28.43,9.93-39.71,21.13-1.13,1.13-2.26,2.33-3.31,3.53-6.84,7.75-11.96,16.62-15.12,26.02-5.56,16.09-5.56,33.61-.15,49.78v.08c3.16,9.32,8.12,18.27,14.96,26.09,1.13,1.35,2.33,2.63,3.61,3.91,11.28,11.28,25.12,18.35,39.71,21.13,4.96,1.05,10,1.5,15.04,1.5s10.08-.53,15.04-1.5c14.59-2.86,28.43-9.85,39.63-21.13,1.28-1.28,2.48-2.56,3.68-3.91,6.84-7.82,11.81-16.77,14.89-26.09v-.08c5.49-16.17,5.41-33.69-.15-49.78ZM335.32,299.13c-1.8,9.1-6.24,17.52-12.93,24.21-.68.68-1.35,1.28-2.03,1.81-4.81,4.36-10.38,7.59-16.39,9.55-4.74,1.65-9.85,2.48-15.04,2.48s-10.3-.83-15.04-2.48c-6.02-1.96-11.58-5.19-16.39-9.55-.68-.53-1.35-1.13-2.03-1.81-6.69-6.69-11.13-15.11-12.94-24.21v-.08c-.6-3.01-.9-6.02-.9-9.17s.3-6.47.98-9.63c1.8-8.95,6.24-17.15,12.86-23.76.75-.75,1.5-1.5,2.33-2.18,4.74-4.14,10.23-7.29,16.09-9.17,4.74-1.65,9.85-2.48,15.04-2.48s10.3.83,15.04,2.48c5.87,1.88,11.36,5.04,16.09,9.17.83.68,1.58,1.43,2.33,2.18,6.54,6.62,10.98,14.81,12.86,23.76.68,3.16.98,6.39.98,9.63s-.3,6.17-.9,9.17v.08Z"/>
        </g>
        <polygon class="cls-2" points="522.57 264 393.79 229.5 428.3 100.71 457.35 108.5 430.63 208.23 530.36 234.95 522.57 264"/>
        <polygon class="cls-2" points="150.88 478.5 121.82 470.72 148.55 370.99 48.81 344.27 56.6 315.22 185.38 349.72 150.88 478.5"/>
      </g>
    </g>
  </g>
</svg>