<?xml version="1.0" encoding="UTF-8"?>
<svg id="Layer_2" data-name="Layer 2" xmlns="http://www.w3.org/2000/svg" viewBox="0 0 579.08 579.08">
  <defs>
    <style>
      .cls-1 {
        fill: none;
      }

      .cls-2 {
        fill: #adf9e6;
      }
    </style>
  </defs>
  <g id="Illustrasjon">
    <g>
      <g>
        <rect class="cls-1" x="36.19" y="36.19" width="506.7" height="506.7"/>
        <rect class="cls-1" x="18.1" y="18.1" width="542.89" height="542.89"/>
        <rect class="cls-1" width="579.08" height="579.08"/>
      </g>
      <g>
        <path class="cls-2" d="M537.24,139.6c-2.52-4.07-64.05-100.26-187.49-100.26-93.67,0-151.72,55.46-175.27,83.75-19.62-22.44-60.94-60.42-116.25-60.42h-20.59l28.29,84.78-28.29,84.78h20.59c55.24,0,96.48-37.84,116.25-60.42,23.69,28.51,81.67,83.75,175.27,83.75,123.43,0,184.97-96.11,187.49-100.26l4.89-7.85-4.89-7.85ZM79.56,200.1l17.55-52.65-17.48-52.57c37.02,8.81,64.94,38.36,76.64,52.57-11.77,14.51-39.54,43.91-76.71,52.65ZM416.32,214.09c-9.33,3.48-19.33,6.37-29.99,8.37-11.4,2.22-23.62,3.48-36.58,3.48-88.19,0-140.02-56.65-156.76-78.42,16.51-21.25,69.01-78.56,156.76-78.56,12.96,0,25.17,1.26,36.58,3.48,10.74,1.92,20.81,4.81,30.14,8.29,48.43,17.84,78.27,51.39,90.04,66.72-11.77,15.11-41.91,48.72-90.19,66.64Z"/>
        <path class="cls-2" d="M544.34,347.59h-20.59c-55.24,0-96.56,37.84-116.33,60.42-23.69-28.51-81.67-83.75-175.19-83.75-123.44,0-184.97,96.11-187.56,100.26l-4.89,7.85,4.89,7.85c2.59,4.07,64.12,100.26,187.56,100.26,93.67,0,151.72-55.46,175.19-83.75,19.7,22.44,61.01,60.42,116.33,60.42h20.59l-28.29-84.78,28.29-84.78ZM232.24,510.87c-72.34,0-120.18-38.06-144.24-63.68-5.41-5.78-9.55-10.88-12.59-14.81,3.04-3.92,7.33-9.03,12.81-14.81,24.29-25.55,72.42-63.68,144.02-63.68s120.03,37.99,144.17,63.68c5.33,5.7,9.48,10.81,12.52,14.74-3.04,3.92-7.26,9.11-12.74,14.88-24.29,25.55-72.42,63.68-143.95,63.68ZM502.36,484.95c-37.02-8.81-64.94-38.28-76.64-52.57,11.85-14.51,39.69-43.83,76.64-52.65l-17.55,52.65,17.55,52.57Z"/>
        <rect class="cls-2" x="57.27" y="417.55" width="349.87" height="29.62"/>
        <polygon class="cls-2" points="399.69 242.48 336.35 147.47 399.69 52.45 424.34 68.88 371.94 147.47 424.34 226.05 399.69 242.48"/>
      </g>
    </g>
  </g>
</svg>