<?xml version="1.0" encoding="UTF-8"?>
<svg id="Layer_2" data-name="Layer 2" xmlns="http://www.w3.org/2000/svg" viewBox="0 0 579.08 579.08">
  <defs>
    <style>
      .cls-1 {
        fill: none;
      }

      .cls-2 {
        fill: #aff8e6;
      }
    </style>
  </defs>
  <g id="Illustrasjon">
    <g>
      <g>
        <rect class="cls-1" x="36.19" y="36.19" width="506.7" height="506.7"/>
        <rect class="cls-1" x="18.1" y="18.1" width="542.89" height="542.89"/>
        <rect class="cls-1" width="579.08" height="579.08"/>
      </g>
      <path class="cls-2" d="M350.83,542.67l-41.39-209.79,16.36-1.73c6.82-.75,151.75-18.3,181.17-158.27-22.67,9.6-52.76,11.21-79.45,12.63-20.31,1.09-39.49,2.11-54.02,5.9-47.19,12.31-70.94,49.43-71.18,49.81l-12.85,20.49-12.72-20.54c-.21-.32-23.96-37.44-71.15-49.76-14.53-3.79-33.71-4.81-54.02-5.9-26.7-1.43-56.81-3.03-79.49-12.65,29.35,140.44,174.37,157.56,181.21,158.29l16.36,1.73-41.39,209.79-29.51-5.83,35.24-178.63c-49.72-10.71-197.13-57.67-197.13-237.78h30.09c0,26.2,25.42,31.78,86.24,35.03,20.91,1.12,42.53,2.27,60.01,6.83,37.3,9.73,62.5,31.45,76.36,46.69,13.85-15.23,39.06-36.96,76.36-46.69,17.48-4.56,39.1-5.71,60.01-6.83,60.82-3.25,86.24-8.83,86.24-35.03h30.09c0,180.11-147.41,227.08-197.13,237.78l35.24,178.63-29.51,5.83Z"/>
    </g>
  </g>
</svg>