<?xml version="1.0" encoding="UTF-8"?>
<svg id="Layer_2" data-name="Layer 2" xmlns="http://www.w3.org/2000/svg" viewBox="0 0 579.08 579.08">
  <defs>
    <style>
      .cls-1 {
        fill: none;
      }

      .cls-2 {
        fill: #aff8e6;
      }
    </style>
  </defs>
  <g id="Illustrasjon">
    <g>
      <g>
        <rect class="cls-1" x="36.19" y="36.19" width="506.7" height="506.7"/>
        <rect class="cls-1" x="18.1" y="18.1" width="542.89" height="542.89"/>
        <rect class="cls-1" width="579.08" height="579.08"/>
      </g>
      <g>
        <path class="cls-2" d="M289.63,36.28c-139.99,0-253.42,113.42-253.42,253.34s113.42,253.27,253.42,253.27,253.27-113.35,253.27-253.27S429.47,36.28,289.63,36.28ZM304.64,512.34c-4.96.38-9.98.53-15.01.53s-10.06-.15-15.01-.53c-111.25-7.36-200.42-96.53-207.85-207.7-.38-4.95-.53-9.98-.53-15.01s.15-10.06.53-15.01c7.43-111.17,96.61-200.35,207.85-207.78,4.95-.38,9.98-.53,15.01-.53s10.06.15,15.01.53c111.17,7.43,200.35,96.61,207.7,207.78.38,4.96.53,9.98.53,15.01s-.15,10.06-.53,15.01c-7.36,111.17-96.53,200.35-207.7,207.7Z"/>
        <path class="cls-2" d="M364.54,266.81v-.08c-7.88-25.6-28.37-45.64-54.27-52.7-6.6-1.8-13.51-2.78-20.72-2.78-43.16,0-78.37,35.13-78.37,78.37,0,7.43,1.05,14.49,3,21.24v.08c7.21,25.37,26.87,45.49,51.95,53.45h.07c7.43,2.25,15.24,3.53,23.35,3.53,43.24,0,78.37-35.13,78.37-78.29,0-7.96-1.2-15.61-3.38-22.82ZM289.55,337.89c-26.65,0-48.34-21.62-48.34-48.27s21.69-48.34,48.34-48.34,48.34,21.69,48.34,48.34-21.69,48.27-48.34,48.27Z"/>
        <path class="cls-2" d="M355.34,283.29l75.92-136.53-136.53,75.92s48.48,9.48,60.62,60.62Z"/>
        <path class="cls-2" d="M223.78,293.61l-75.92,136.53,136.53-75.92s-48.48-9.48-60.62-60.62Z"/>
        <rect class="cls-2" x="274.59" y="43.34" width="30.03" height="79.53"/>
        <rect class="cls-2" x="274.59" y="456.38" width="30.03" height="79.53"/>
        <rect class="cls-2" x="43.31" y="274.61" width="79.54" height="30.03"/>
        <rect class="cls-2" x="456.35" y="274.61" width="79.53" height="30.03"/>
      </g>
    </g>
  </g>
</svg>