<?xml version="1.0" encoding="UTF-8"?>
<svg id="Layer_2" data-name="Layer 2" xmlns="http://www.w3.org/2000/svg" viewBox="0 0 579.08 579.08">
  <defs>
    <style>
      .cls-1 {
        fill: none;
      }

      .cls-2 {
        fill: #adf9e6;
      }
    </style>
  </defs>
  <g id="Illustrasjon">
    <g>
      <g>
        <rect class="cls-1" x="36.19" y="36.19" width="506.7" height="506.7"/>
        <rect class="cls-1" x="18.1" y="18.1" width="542.89" height="542.89"/>
        <rect class="cls-1" width="579.08" height="579.08"/>
      </g>
      <path class="cls-2" d="M289.54,159.6c-1.65-68.46-57.73-123.41-126.64-123.41s-126.71,56.68-126.71,126.64,56.75,126.71,126.71,126.71,124.91-54.87,126.64-123.41c.08-1.13.08-2.18.08-3.3,0-1.05,0-2.18-.08-3.23ZM162.9,259.51c-53.3,0-96.68-43.39-96.68-96.68s43.39-96.61,96.68-96.61,96.69,43.31,96.69,96.61-43.39,96.68-96.69,96.68Z"/>
      <path class="cls-2" d="M416.25,36.19c-68.99,0-125.06,54.95-126.71,123.41-.08,1.05-.08,2.18-.08,3.23,0,1.13,0,2.18.08,3.3,1.73,68.54,57.8,123.41,126.71,123.41s126.64-56.67,126.64-126.71-56.75-126.64-126.64-126.64ZM416.25,259.51c-53.37,0-96.76-43.39-96.76-96.68s43.39-96.61,96.76-96.61,96.61,43.31,96.61,96.61-43.39,96.68-96.61,96.68Z"/>
      <path class="cls-2" d="M289.54,412.95c-1.65-68.46-57.73-123.41-126.64-123.41s-126.71,56.68-126.71,126.64,56.75,126.71,126.71,126.71,124.91-54.87,126.64-123.41c.08-1.13.08-2.18.08-3.3,0-1.05,0-2.18-.08-3.23ZM162.9,512.86c-53.3,0-96.68-43.39-96.68-96.68s43.39-96.61,96.68-96.61,96.69,43.31,96.69,96.61-43.39,96.68-96.69,96.68Z"/>
      <path class="cls-2" d="M416.25,289.54c-68.99,0-125.06,54.95-126.71,123.41-.08,1.05-.08,2.18-.08,3.23,0,1.13,0,2.18.08,3.3,1.73,68.54,57.8,123.41,126.71,123.41s126.64-56.67,126.64-126.71-56.75-126.64-126.64-126.64ZM416.25,512.86c-53.37,0-96.76-43.39-96.76-96.68s43.39-96.61,96.76-96.61,96.61,43.31,96.61,96.61-43.39,96.68-96.61,96.68Z"/>
    </g>
  </g>
</svg>