<?xml version="1.0" encoding="UTF-8"?>
<svg id="Layer_2" data-name="Layer 2" xmlns="http://www.w3.org/2000/svg" viewBox="0 0 579.08 579.08">
  <defs>
    <style>
      .cls-1 {
        fill: none;
      }

      .cls-2 {
        fill: #aff8e6;
      }
    </style>
  </defs>
  <g id="Illustrasjon">
    <g>
      <g>
        <rect class="cls-1" x="36.19" y="36.19" width="506.7" height="506.7"/>
        <rect class="cls-1" x="18.1" y="18.1" width="542.89" height="542.89"/>
        <rect class="cls-1" width="579.08" height="579.08"/>
      </g>
      <g>
        <path class="cls-2" d="M120.76,542.89h-32.22c0-95.38-23.12-152.66-52.44-203.25v-61.31c.48.72.89,1.37,1.37,2.09,40.93,64.37,83.3,130.83,83.3,262.46Z"/>
        <path class="cls-2" d="M253.36,542.89h-32.22c0-122.21-38.02-181.9-78.22-245.14C101.99,233.46,59.69,166.92,59.69,35.36h32.22c0,122.13,37.94,181.91,78.22,245.07,40.93,64.37,83.22,130.83,83.22,262.46Z"/>
        <path class="cls-2" d="M386.04,542.89h-32.22c0-122.21-38.02-181.9-78.22-245.14-41.01-64.29-83.3-130.83-83.3-262.38h32.22c0,122.13,38.02,181.91,78.22,245.07,40.93,64.37,83.3,130.83,83.3,262.46Z"/>
        <path class="cls-2" d="M518.64,542.89h-32.22c0-122.21-37.94-181.9-78.22-245.14-40.93-64.29-83.22-130.83-83.22-262.38h32.22c0,122.13,37.95,181.91,78.23,245.07,40.92,64.37,83.22,130.83,83.22,262.46Z"/>
        <path class="cls-2" d="M542.89,239.74v61.15c-.72-1.05-1.37-2.09-2.01-3.14-40.93-64.29-83.3-130.83-83.3-262.38h32.22c0,96.03,23.52,153.47,53.09,204.38Z"/>
      </g>
    </g>
  </g>
</svg>