<?xml version="1.0" encoding="UTF-8"?>
<svg id="Layer_2" data-name="Layer 2" xmlns="http://www.w3.org/2000/svg" viewBox="0 0 579.08 579.08">
  <defs>
    <style>
      .cls-1 {
        fill: none;
      }

      .cls-2 {
        fill: #aff8e6;
      }
    </style>
  </defs>
  <g id="Illustrasjon">
    <g>
      <g>
        <rect class="cls-1" x="36.19" y="36.19" width="506.7" height="506.7"/>
        <rect class="cls-1" x="18.1" y="18.1" width="542.89" height="542.89"/>
        <rect class="cls-1" width="579.08" height="579.08"/>
      </g>
      <g>
        <path class="cls-2" d="M289.2,161.82c0,69.88-56.64,126.48-126.48,126.48s-126.52-56.6-126.52-126.48,56.64-126.48,126.52-126.48,126.48,56.64,126.48,126.48Z"/>
        <path class="cls-2" d="M542.12,161.82c0,69.88-56.64,126.48-126.48,126.48s-126.52-56.6-126.52-126.48,56.64-126.48,126.52-126.48,126.48,56.64,126.48,126.48Z"/>
        <path class="cls-2" d="M289.2,414.79c0,69.88-56.64,126.48-126.48,126.48s-126.52-56.6-126.52-126.48,56.64-126.48,126.52-126.48,126.48,56.64,126.48,126.48Z"/>
        <path class="cls-2" d="M542.12,414.79c0,69.88-56.64,126.48-126.48,126.48s-126.52-56.6-126.52-126.48,56.64-126.48,126.52-126.48,126.48,56.64,126.48,126.48Z"/>
      </g>
    </g>
  </g>
</svg>