<?xml version="1.0" encoding="UTF-8"?>
<svg id="Layer_2" data-name="Layer 2" xmlns="http://www.w3.org/2000/svg" viewBox="0 0 579.08 579.08">
  <defs>
    <style>
      .cls-1 {
        fill: none;
      }

      .cls-2 {
        fill: #adf9e6;
      }
    </style>
  </defs>
  <g id="Illustrasjon">
    <g>
      <g>
        <rect class="cls-1" x="36.19" y="36.19" width="506.7" height="506.7"/>
        <rect class="cls-1" x="18.1" y="18.1" width="542.89" height="542.89"/>
        <rect class="cls-1" width="579.08" height="579.08"/>
      </g>
      <g>
        <path class="cls-2" d="M540.78,100.27c-45,0-67.77-8.68-89.8-17.07-20.21-7.7-39.3-14.97-78.4-14.97s-58.18,7.27-78.4,14.97c-22.03,8.39-44.81,17.07-89.81,17.07s-67.77-8.68-89.79-17.07c-20.2-7.7-39.29-14.97-78.39-14.97v-32.04c44.99,0,67.77,8.68,89.79,17.07,20.2,7.7,39.29,14.97,78.39,14.97s58.19-7.27,78.4-14.97c22.03-8.39,44.8-17.07,89.8-17.07s67.78,8.68,89.81,17.07c20.21,7.7,39.3,14.97,78.4,14.97v32.04Z"/>
        <path class="cls-2" d="M540.78,211.29c-45,0-67.77-8.68-89.8-17.07-20.21-7.7-39.3-14.97-78.4-14.97s-58.18,7.27-78.4,14.97c-22.03,8.39-44.81,17.07-89.81,17.07s-67.77-8.68-89.79-17.07c-20.2-7.7-39.29-14.97-78.39-14.97v-32.04c44.99,0,67.77,8.68,89.79,17.07,20.2,7.7,39.29,14.97,78.39,14.97s58.19-7.27,78.4-14.97c22.03-8.39,44.8-17.07,89.8-17.07s67.78,8.68,89.81,17.07c20.21,7.7,39.3,14.97,78.4,14.97v32.04Z"/>
        <path class="cls-2" d="M540.78,322.3c-45,0-67.77-8.68-89.8-17.07-20.21-7.7-39.3-14.97-78.4-14.97s-58.18,7.27-78.4,14.97c-22.03,8.39-44.81,17.07-89.81,17.07s-67.77-8.68-89.79-17.07c-20.2-7.7-39.29-14.97-78.39-14.97v-32.04c44.99,0,67.77,8.68,89.79,17.07,20.2,7.7,39.29,14.97,78.39,14.97s58.19-7.27,78.4-14.97c22.03-8.39,44.8-17.07,89.8-17.07s67.78,8.68,89.81,17.07c20.21,7.7,39.3,14.97,78.4,14.97v32.04Z"/>
        <path class="cls-2" d="M540.78,433.32c-45,0-67.77-8.68-89.8-17.07-20.21-7.7-39.3-14.97-78.4-14.97s-58.18,7.27-78.4,14.97c-22.03,8.39-44.81,17.07-89.81,17.07s-67.77-8.68-89.79-17.07c-20.2-7.7-39.29-14.97-78.39-14.97v-32.04c44.99,0,67.77,8.68,89.79,17.07,20.2,7.7,39.29,14.97,78.39,14.97s58.19-7.27,78.4-14.97c22.03-8.39,44.8-17.07,89.8-17.07s67.78,8.68,89.81,17.07c20.21,7.7,39.3,14.97,78.4,14.97v32.04Z"/>
        <path class="cls-2" d="M540.78,544.34c-45,0-67.77-8.68-89.8-17.07-20.21-7.7-39.3-14.97-78.4-14.97s-58.18,7.27-78.4,14.97c-22.03,8.39-44.81,17.07-89.81,17.07s-67.77-8.68-89.79-17.07c-20.2-7.7-39.29-14.97-78.39-14.97v-32.04c44.99,0,67.77,8.68,89.79,17.07,20.2,7.7,39.29,14.97,78.39,14.97s58.19-7.27,78.4-14.97c22.03-8.39,44.8-17.07,89.8-17.07s67.78,8.68,89.81,17.07c20.21,7.7,39.3,14.97,78.4,14.97v32.04Z"/>
      </g>
    </g>
  </g>
</svg>