<?xml version="1.0" encoding="UTF-8"?>
<svg id="Layer_2" data-name="Layer 2" xmlns="http://www.w3.org/2000/svg" viewBox="0 0 400 400">
  <defs>
    <style>
      .cls-1 {
        fill: none;
      }

      .cls-2 {
        fill: #aff8e6;
      }
    </style>
  </defs>
  <g id="Illustrasjon">
    <g>
      <g>
        <rect class="cls-1" x="25" y="25" width="350" height="350"/>
        <rect class="cls-1" x="12.5" y="12.5" width="375" height="375"/>
        <rect class="cls-1" width="400" height="400"/>
      </g>
      <g>
        <path class="cls-2" d="M287.49,375c-29.29,0-42.42-31.53-54.01-59.34-9.35-22.45-19.02-45.66-33.49-45.66s-24.14,23.21-33.5,45.66c-11.58,27.81-24.72,59.34-54,59.34s-42.42-31.53-54.01-59.34c-9.35-22.45-19.02-45.66-33.49-45.66v-22.22c29.28,0,42.42,31.52,54,59.34,9.35,22.45,19.03,45.66,33.5,45.66s24.14-23.21,33.49-45.66c11.59-27.82,24.72-59.34,54.01-59.34s42.42,31.52,54,59.34c9.36,22.45,19.03,45.66,33.5,45.66s24.14-23.21,33.5-45.66c11.59-27.81,24.72-59.34,54-59.34v22.22c-14.47,0-24.14,23.21-33.49,45.66-11.59,27.81-24.73,59.34-54.01,59.34Z"/>
        <path class="cls-2" d="M287.49,263.67c-29.29,0-42.42-31.52-54.01-59.34-9.35-22.45-19.02-45.66-33.49-45.66s-24.14,23.21-33.5,45.66c-11.58,27.81-24.72,59.33-54,59.33s-42.42-31.52-54-59.34c-9.35-22.45-19.02-45.66-33.49-45.66v-22.22c29.28,0,42.42,31.52,54,59.34,9.35,22.45,19.02,45.66,33.49,45.66s24.14-23.21,33.49-45.66c11.59-27.81,24.73-59.34,54.01-59.34s42.42,31.52,54,59.33c9.36,22.45,19.03,45.66,33.5,45.66s24.14-23.21,33.5-45.66c11.59-27.81,24.72-59.33,54-59.33v22.22c-14.47,0-24.14,23.21-33.49,45.66-11.59,27.82-24.73,59.34-54.01,59.34Z"/>
        <path class="cls-2" d="M287.49,152.35c-29.29,0-42.42-31.52-54.01-59.34-9.35-22.45-19.02-45.66-33.49-45.66s-24.14,23.21-33.5,45.66c-11.58,27.81-24.72,59.33-54,59.33s-42.42-31.52-54-59.33c-9.35-22.45-19.03-45.66-33.5-45.66v-22.22c29.28,0,42.42,31.53,54.01,59.34,9.35,22.45,19.02,45.66,33.49,45.66s24.14-23.21,33.49-45.66c11.59-27.81,24.73-59.34,54.01-59.34s42.42,31.52,54,59.33c9.36,22.45,19.03,45.66,33.5,45.66s24.14-23.21,33.5-45.66c11.59-27.81,24.72-59.33,54-59.33v22.22c-14.47,0-24.14,23.21-33.49,45.66-11.59,27.82-24.73,59.34-54.01,59.34Z"/>
      </g>
    </g>
  </g>
</svg>